<svg id="visual" preserveAspectRatio="none" viewBox="0 0 960 540" width="960" height="540" xmlns="http://www.w3.org/2000/svg" xmlns:xlink="http://www.w3.org/1999/xlink" version="1.1"><rect x="0" y="0" width="960" height="540" fill="#FAFAFA"></rect><path d="M0 174L22.8 172.8C45.7 171.7 91.3 169.3 137 177.2C182.7 185 228.3 203 274 216.3C319.7 229.7 365.3 238.3 411.2 237.5C457 236.7 503 226.3 548.8 227C594.7 227.7 640.3 239.3 686 229.7C731.7 220 777.3 189 823 173.2C868.7 157.3 914.3 156.7 937.2 156.3L960 156L960 541L937.2 541C914.3 541 868.7 541 823 541C777.3 541 731.7 541 686 541C640.3 541 594.7 541 548.8 541C503 541 457 541 411.2 541C365.3 541 319.7 541 274 541C228.3 541 182.7 541 137 541C91.3 541 45.7 541 22.8 541L0 541Z" fill="#0066ff"></path><path d="M0 285L22.8 291.7C45.7 298.3 91.3 311.7 137 311.8C182.7 312 228.3 299 274 301.7C319.7 304.3 365.3 322.7 411.2 319.5C457 316.3 503 291.7 548.8 285.7C594.7 279.7 640.3 292.3 686 301.5C731.7 310.7 777.3 316.3 823 309.7C868.7 303 914.3 284 937.2 274.5L960 265L960 541L937.2 541C914.3 541 868.7 541 823 541C777.3 541 731.7 541 686 541C640.3 541 594.7 541 548.8 541C503 541 457 541 411.2 541C365.3 541 319.7 541 274 541C228.3 541 182.7 541 137 541C91.3 541 45.7 541 22.8 541L0 541Z" fill="#379cff"></path><path d="M0 404L22.8 398.3C45.7 392.7 91.3 381.3 137 373.2C182.7 365 228.3 360 274 359.3C319.7 358.7 365.3 362.3 411.2 360.5C457 358.7 503 351.3 548.8 348.3C594.7 345.3 640.3 346.7 686 350.5C731.7 354.3 777.3 360.7 823 360.5C868.7 360.3 914.3 353.7 937.2 350.3L960 347L960 541L937.2 541C914.3 541 868.7 541 823 541C777.3 541 731.7 541 686 541C640.3 541 594.7 541 548.8 541C503 541 457 541 411.2 541C365.3 541 319.7 541 274 541C228.3 541 182.7 541 137 541C91.3 541 45.7 541 22.8 541L0 541Z" fill="#8fc9ff"></path><path d="M0 451L22.8 446.3C45.7 441.7 91.3 432.3 137 425.3C182.7 418.3 228.3 413.7 274 418.7C319.7 423.7 365.3 438.3 411.2 443.7C457 449 503 445 548.8 445.7C594.7 446.3 640.3 451.7 686 445.7C731.7 439.7 777.3 422.3 823 418.3C868.7 414.3 914.3 423.7 937.2 428.3L960 433L960 541L937.2 541C914.3 541 868.7 541 823 541C777.3 541 731.7 541 686 541C640.3 541 594.7 541 548.8 541C503 541 457 541 411.2 541C365.3 541 319.7 541 274 541C228.3 541 182.7 541 137 541C91.3 541 45.7 541 22.8 541L0 541Z" fill="#e2f2fe"></path></svg>