<svg id="visual" viewBox="0 0 960 540" width="960" height="540" xmlns="http://www.w3.org/2000/svg" xmlns:xlink="http://www.w3.org/1999/xlink" version="1.1"><rect x="0" y="0" width="960" height="540" fill="#FAFAFA"></rect><defs><linearGradient id="grad1_0" x1="43.8%" y1="0%" x2="100%" y2="100%"><stop offset="14.444444444444446%" stop-color="#0595ff" stop-opacity="1"></stop><stop offset="85.55555555555554%" stop-color="#0595ff" stop-opacity="1"></stop></linearGradient></defs><defs><linearGradient id="grad1_1" x1="43.8%" y1="0%" x2="100%" y2="100%"><stop offset="14.444444444444446%" stop-color="#0595ff" stop-opacity="1"></stop><stop offset="85.55555555555554%" stop-color="#75adff" stop-opacity="1"></stop></linearGradient></defs><defs><linearGradient id="grad1_2" x1="43.8%" y1="0%" x2="100%" y2="100%"><stop offset="14.444444444444446%" stop-color="#a8c6fe" stop-opacity="1"></stop><stop offset="85.55555555555554%" stop-color="#75adff" stop-opacity="1"></stop></linearGradient></defs><defs><linearGradient id="grad1_3" x1="43.8%" y1="0%" x2="100%" y2="100%"><stop offset="14.444444444444446%" stop-color="#a8c6fe" stop-opacity="1"></stop><stop offset="85.55555555555554%" stop-color="#d3dffc" stop-opacity="1"></stop></linearGradient></defs><defs><linearGradient id="grad1_4" x1="43.8%" y1="0%" x2="100%" y2="100%"><stop offset="14.444444444444446%" stop-color="#fafafa" stop-opacity="1"></stop><stop offset="85.55555555555554%" stop-color="#d3dffc" stop-opacity="1"></stop></linearGradient></defs><defs><linearGradient id="grad2_0" x1="0%" y1="0%" x2="56.3%" y2="100%"><stop offset="14.444444444444446%" stop-color="#0595ff" stop-opacity="1"></stop><stop offset="85.55555555555554%" stop-color="#0595ff" stop-opacity="1"></stop></linearGradient></defs><defs><linearGradient id="grad2_1" x1="0%" y1="0%" x2="56.3%" y2="100%"><stop offset="14.444444444444446%" stop-color="#75adff" stop-opacity="1"></stop><stop offset="85.55555555555554%" stop-color="#0595ff" stop-opacity="1"></stop></linearGradient></defs><defs><linearGradient id="grad2_2" x1="0%" y1="0%" x2="56.3%" y2="100%"><stop offset="14.444444444444446%" stop-color="#75adff" stop-opacity="1"></stop><stop offset="85.55555555555554%" stop-color="#a8c6fe" stop-opacity="1"></stop></linearGradient></defs><defs><linearGradient id="grad2_3" x1="0%" y1="0%" x2="56.3%" y2="100%"><stop offset="14.444444444444446%" stop-color="#d3dffc" stop-opacity="1"></stop><stop offset="85.55555555555554%" stop-color="#a8c6fe" stop-opacity="1"></stop></linearGradient></defs><defs><linearGradient id="grad2_4" x1="0%" y1="0%" x2="56.3%" y2="100%"><stop offset="14.444444444444446%" stop-color="#d3dffc" stop-opacity="1"></stop><stop offset="85.55555555555554%" stop-color="#fafafa" stop-opacity="1"></stop></linearGradient></defs><g transform="translate(960, 0)"><path d="M0 243C-38.1 229.5 -76.3 216 -114 197.5C-151.7 178.9 -189 155.3 -210.4 121.5C-231.9 87.7 -237.4 43.9 -243 0L0 0Z" fill="#e7edfb"></path><path d="M0 194.4C-30.5 183.6 -61 172.8 -91.2 158C-121.4 143.1 -151.2 124.2 -168.4 97.2C-185.5 70.2 -189.9 35.1 -194.4 0L0 0Z" fill="#bed2fd"></path><path d="M0 145.8C-22.9 137.7 -45.8 129.6 -68.4 118.5C-91 107.3 -113.4 93.2 -126.3 72.9C-139.1 52.6 -142.5 26.3 -145.8 0L0 0Z" fill="#90b9fe"></path><path d="M0 97.2C-15.3 91.8 -30.5 86.4 -45.6 79C-60.7 71.6 -75.6 62.1 -84.2 48.6C-92.7 35.1 -95 17.5 -97.2 0L0 0Z" fill="#52a1ff"></path><path d="M0 48.6C-7.6 45.9 -15.3 43.2 -22.8 39.5C-30.3 35.8 -37.8 31.1 -42.1 24.3C-46.4 17.5 -47.5 8.8 -48.6 0L0 0Z" fill="#0595ff"></path></g><g transform="translate(0, 540)"><path d="M0 -243C41.9 -236 83.7 -229 121 -209.6C158.3 -190.2 190.9 -158.5 210.4 -121.5C230 -84.5 236.5 -42.3 243 0L0 0Z" fill="#e7edfb"></path><path d="M0 -194.4C33.5 -188.8 67 -183.2 96.8 -167.7C126.6 -152.2 152.7 -126.8 168.4 -97.2C184 -67.6 189.2 -33.8 194.4 0L0 0Z" fill="#bed2fd"></path><path d="M0 -145.8C25.1 -141.6 50.2 -137.4 72.6 -125.7C95 -114.1 114.5 -95.1 126.3 -72.9C138 -50.7 141.9 -25.4 145.8 0L0 0Z" fill="#90b9fe"></path><path d="M0 -97.2C16.7 -94.4 33.5 -91.6 48.4 -83.8C63.3 -76.1 76.4 -63.4 84.2 -48.6C92 -33.8 94.6 -16.9 97.2 0L0 0Z" fill="#52a1ff"></path><path d="M0 -48.6C8.4 -47.2 16.7 -45.8 24.2 -41.9C31.7 -38 38.2 -31.7 42.1 -24.3C46 -16.9 47.3 -8.5 48.6 0L0 0Z" fill="#0595ff"></path></g></svg>