<?xml version="1.0" encoding="UTF-8" standalone="no"?>
<!DOCTYPE svg PUBLIC "-//W3C//DTD SVG 1.1//EN" "http://www.w3.org/Graphics/SVG/1.1/DTD/svg11.dtd">
<svg width="100%" height="100%" viewBox="0 0 256 256" version="1.1" xmlns="http://www.w3.org/2000/svg" xmlns:xlink="http://www.w3.org/1999/xlink" xml:space="preserve" xmlns:serif="http://www.serif.com/" style="fill-rule:evenodd;clip-rule:evenodd;stroke-linejoin:round;stroke-miterlimit:2;">
    <g transform="matrix(1,0,0,1,16,0)">
        <path d="M207.953,52.162L127.317,4.287C117.733,-1.429 105.787,-1.429 96.203,4.287L15.55,52.162C5.849,58.014 -0.058,68.54 0,79.869L0,175.603C-0.052,186.927 5.854,197.445 15.55,203.294L96.186,251.153C105.771,256.865 117.716,256.865 127.301,251.153L207.937,203.294C217.645,197.446 223.558,186.92 223.503,175.587L223.503,79.869C223.562,68.54 217.655,58.014 207.953,52.162Z" style="fill:white;fill-rule:nonzero;"/>
        <path d="M208.412,52.277L127.598,4.296C117.992,-1.432 106.02,-1.432 96.414,4.296L15.584,52.277C5.862,58.142 -0.058,68.69 0,80.045L0,175.99C-0.052,187.339 5.867,197.88 15.584,203.742L96.398,251.706C106.004,257.431 117.975,257.431 127.581,251.706L208.395,203.742C218.124,197.881 224.051,187.332 223.995,175.973L223.995,80.045C224.054,68.69 218.134,58.142 208.412,52.277ZM99.23,246.803L18.416,198.839C10.43,194 5.566,185.328 5.6,175.99L5.6,80.045C5.563,70.707 10.428,62.033 18.416,57.196L99.23,9.216C107.095,4.524 116.901,4.524 124.766,9.216L205.515,57.196C212.172,61.228 216.713,67.989 217.927,75.676C215.24,69.964 209.204,68.394 202.165,72.44L125.769,119.756C116.238,125.307 109.215,131.57 109.198,143.059L109.198,237.272C109.198,244.149 111.966,248.599 116.238,249.91C114.839,250.166 113.42,250.302 111.998,250.315C107.504,250.311 103.094,249.098 99.23,246.803Z" style="fill:rgb(47,58,62);fill-rule:nonzero;"/>
        <path d="M187.007,185.06L166.921,197.073C166.383,197.289 166.022,197.801 166.001,198.381L166.001,203.661C166.001,204.307 166.436,204.565 166.969,204.258L187.363,191.858C187.862,191.483 188.101,190.854 187.976,190.243L187.976,185.609C187.96,185.011 187.492,184.753 187.007,185.06Z" style="fill:rgb(58,177,74);fill-rule:nonzero;"/>
        <path d="M144.263,140.832C144.909,140.509 145.442,140.832 145.458,141.752L145.522,148.76C147.938,147.663 150.633,147.336 153.24,147.823C153.741,147.953 153.951,148.631 153.757,149.438L152.223,155.59C152.107,156.054 151.867,156.478 151.529,156.817C151.41,156.934 151.274,157.032 151.125,157.108C150.943,157.206 150.732,157.241 150.528,157.205C147.985,156.641 145.323,157.069 143.084,158.399C139.811,159.874 137.671,163.093 137.578,166.683C137.578,169.912 139.193,170.8 144.828,170.897C152.272,171.026 155.501,174.272 155.582,181.78C155.405,189.617 151.791,196.98 145.7,201.915L145.829,208.793C145.818,209.647 145.374,210.438 144.65,210.892L140.582,213.233C139.936,213.556 139.403,213.233 139.387,212.329L139.387,205.564C135.899,207.017 132.363,207.356 130.102,206.452C129.683,206.29 129.489,205.661 129.666,204.934L131.136,198.718C131.247,198.226 131.5,197.777 131.862,197.426C131.977,197.316 132.108,197.223 132.25,197.151C132.46,197.057 132.701,197.057 132.912,197.151C135.79,197.932 138.86,197.543 141.453,196.07C145.195,194.265 147.627,190.533 147.767,186.382C147.767,182.894 145.845,181.441 141.308,181.408C135.447,181.408 130.005,180.278 129.892,171.72C130.027,164.244 133.498,157.22 139.354,152.57L139.064,145.531C139.061,144.664 139.507,143.858 140.242,143.399L144.263,140.832Z" style="fill:white;fill-rule:nonzero;"/>
    </g>
</svg>
