<?xml version="1.0" encoding="UTF-8" standalone="no"?>
<!DOCTYPE svg PUBLIC "-//W3C//DTD SVG 1.1//EN" "http://www.w3.org/Graphics/SVG/1.1/DTD/svg11.dtd">
<svg width="100%" height="100%" viewBox="0 0 256 256" version="1.1" xmlns="http://www.w3.org/2000/svg" xmlns:xlink="http://www.w3.org/1999/xlink" xml:space="preserve" xmlns:serif="http://www.serif.com/" style="fill-rule:evenodd;clip-rule:evenodd;stroke-linejoin:round;stroke-miterlimit:2;">
    <g transform="matrix(1,0,0,1,0,10)">
        <path d="M128.075,236.075L175.179,91.104L80.971,91.104L128.075,236.075Z" style="fill:rgb(226,67,41);fill-rule:nonzero;"/>
        <path d="M128.075,236.074L80.971,91.104L14.956,91.104L128.075,236.074Z" style="fill:rgb(252,109,38);fill-rule:nonzero;"/>
        <path d="M14.956,91.104L0.642,135.16C-0.664,139.178 0.766,143.58 4.184,146.063L128.075,236.075L14.956,91.104Z" style="fill:rgb(252,163,38);fill-rule:nonzero;"/>
        <path d="M14.956,91.105L80.971,91.105L52.6,3.79C51.141,-0.703 44.785,-0.702 43.326,3.79L14.956,91.105Z" style="fill:rgb(226,67,41);fill-rule:nonzero;"/>
        <path d="M128.075,236.074L175.179,91.104L241.194,91.104L128.075,236.074Z" style="fill:rgb(252,109,38);fill-rule:nonzero;"/>
        <path d="M241.194,91.104L255.508,135.16C256.814,139.178 255.384,143.58 251.965,146.063L128.075,236.075L241.194,91.104Z" style="fill:rgb(252,163,38);fill-rule:nonzero;"/>
        <path d="M241.194,91.105L175.179,91.105L203.55,3.79C205.009,-0.703 211.365,-0.702 212.824,3.79L241.194,91.105Z" style="fill:rgb(226,67,41);fill-rule:nonzero;"/>
    </g>
</svg>
