<?xml version="1.0" encoding="UTF-8" standalone="no"?>
<!DOCTYPE svg PUBLIC "-//W3C//DTD SVG 1.1//EN" "http://www.w3.org/Graphics/SVG/1.1/DTD/svg11.dtd">
<svg width="100%" height="100%" viewBox="0 0 256 256" version="1.1" xmlns="http://www.w3.org/2000/svg" xmlns:xlink="http://www.w3.org/1999/xlink" xml:space="preserve" xmlns:serif="http://www.serif.com/" style="fill-rule:evenodd;clip-rule:evenodd;stroke-linejoin:round;stroke-miterlimit:2;">
    <g transform="matrix(1,0,0,1,0,1)">
        <path d="M128,0C198.695,0 256,56.688 256,126.623C256,196.558 198.695,253.246 128,253.246C57.305,253.246 0,196.558 0,126.623C0,56.688 57.305,0 128,0ZM186.745,68.51C161.26,43.442 120.945,42.445 96.612,66.516C53.576,109.09 66.266,184.083 66.791,187.065L66.808,187.157C66.808,187.157 144.99,200.973 188.76,157.673C213.093,133.602 212.229,93.579 186.745,68.51ZM142.686,74.208L155.213,99.703L180.985,112.095L155.213,124.487L142.686,149.982L130.16,124.487L104.387,112.095L130.16,99.703L142.686,74.208Z" style="fill:rgb(72,81,96);fill-rule:nonzero;"/>
    </g>
</svg>
