<?xml version="1.0" encoding="UTF-8" standalone="no"?>
<!DOCTYPE svg PUBLIC "-//W3C//DTD SVG 1.1//EN" "http://www.w3.org/Graphics/SVG/1.1/DTD/svg11.dtd">
<svg width="100%" height="100%" viewBox="0 0 549 549" version="1.1" xmlns="http://www.w3.org/2000/svg" xmlns:xlink="http://www.w3.org/1999/xlink" xml:space="preserve" xmlns:serif="http://www.serif.com/" style="fill-rule:evenodd;clip-rule:evenodd;stroke-linejoin:round;stroke-miterlimit:2;">
    <g transform="matrix(1,0,0,1,146.5,0)">
        <path d="M175.622,61.108C152.611,33.807 132.797,6.079 128.749,0.32C128.322,-0.107 127.683,-0.107 127.257,0.32C123.209,6.079 103.394,33.807 80.383,61.108C-117.124,313.004 111.491,482.999 111.491,482.999L113.408,484.279C115.112,510.512 119.374,548.266 119.374,548.266L136.419,548.266C136.419,548.266 140.68,510.726 142.384,484.279L144.302,482.785C144.515,482.999 373.13,313.004 175.622,61.108ZM127.896,479.159C127.896,479.159 117.669,470.414 114.899,465.936L114.899,465.508L127.257,191.216C127.257,190.363 128.536,190.363 128.536,191.216L140.893,465.508L140.893,465.936C138.123,470.414 127.896,479.159 127.896,479.159Z" style="fill:rgb(1,236,100);fill-rule:nonzero;"/>
    </g>
</svg>
