<?xml version="1.0" encoding="UTF-8" standalone="no"?>
<!DOCTYPE svg PUBLIC "-//W3C//DTD SVG 1.1//EN" "http://www.w3.org/Graphics/SVG/1.1/DTD/svg11.dtd">
<svg width="100%" height="100%" viewBox="0 0 512 512" version="1.1" xmlns="http://www.w3.org/2000/svg" xmlns:xlink="http://www.w3.org/1999/xlink" xml:space="preserve" xmlns:serif="http://www.serif.com/" style="fill-rule:evenodd;clip-rule:evenodd;stroke-linejoin:round;stroke-miterlimit:2;">
    <g transform="matrix(0.993865,0,0,0.993865,1.57069,127.789)">
        <path d="M116.448,54.116C138.735,54.303 154.884,60.728 164.897,73.382C174.91,86.035 178.213,103.319 174.813,125.231C173.493,135.244 170.563,145.064 166.03,154.697C161.684,164.33 155.643,173.017 147.897,180.763C138.451,190.584 128.348,196.817 117.581,199.463C106.815,202.109 95.669,203.43 84.148,203.43L50.149,203.43L39.383,257.262L0,257.262L40.516,54.116L116.448,54.116ZM452.341,54.116C474.628,54.303 490.778,60.728 500.79,73.382C510.803,86.035 514.107,103.319 510.707,125.231C509.386,135.244 506.457,145.064 501.924,154.697C497.577,164.33 491.537,173.017 483.791,180.763C474.345,190.584 464.241,196.817 453.475,199.463C442.708,202.109 431.562,203.43 420.042,203.43L386.042,203.43L375.276,257.262L335.893,257.262L376.409,54.116L452.341,54.116ZM258.775,0L247.725,54.116L282.858,54.116C302.124,54.495 316.477,58.462 325.923,66.015C335.557,73.569 338.39,87.928 334.423,109.081L315.44,203.43L275.774,203.43L293.907,113.331C295.794,103.885 295.228,97.182 292.207,93.215C289.187,89.248 282.671,87.265 272.658,87.265L241.208,86.982L217.975,203.43L178.876,203.43L219.675,0L258.775,0ZM85.848,86.415C83.582,86.602 81.411,86.698 79.332,86.698L73.608,86.698L56.666,171.413C57.799,171.601 58.932,171.697 60.066,171.697L64.032,171.697C82.165,171.884 97.278,170.093 109.365,166.314C121.452,162.347 129.577,148.56 133.731,124.948C137.131,105.115 133.731,93.685 123.531,90.665C113.518,87.645 100.961,86.228 85.848,86.415ZM421.742,86.415C419.475,86.602 417.305,86.698 415.225,86.698L409.501,86.698L392.559,171.413C393.692,171.601 394.826,171.697 395.959,171.697L399.926,171.697C418.059,171.884 433.171,170.093 445.258,166.314C457.345,162.347 465.471,148.56 469.624,124.948C473.024,105.115 469.624,93.685 459.424,90.665C449.412,87.645 436.854,86.228 421.742,86.415Z" style="fill-rule:nonzero;"/>
    </g>
</svg>
