<?xml version="1.0" encoding="UTF-8" standalone="no"?>
<!DOCTYPE svg PUBLIC "-//W3C//DTD SVG 1.1//EN" "http://www.w3.org/Graphics/SVG/1.1/DTD/svg11.dtd">
<svg width="100%" height="100%" viewBox="0 0 256 256" version="1.1" xmlns="http://www.w3.org/2000/svg" xmlns:xlink="http://www.w3.org/1999/xlink" xml:space="preserve" xmlns:serif="http://www.serif.com/" style="fill-rule:evenodd;clip-rule:evenodd;stroke-linejoin:round;stroke-miterlimit:2;">
    <g transform="matrix(0.986332,0,0,0.986332,1.74956,1.74956)">
        <path d="M254.953,144.253C263.912,74.122 214.384,10.005 144.381,1.047C74.378,-7.912 10.005,41.616 1.047,111.619C-7.912,181.622 41.616,245.867 111.619,254.953C181.75,263.912 245.867,214.384 254.953,144.253Z" style="fill:rgb(255,108,55);fill-rule:nonzero;"/>
        <g transform="matrix(1,0,0,1,50.1812,45.1989)">
            <path d="M124.018,36.985L70.012,90.992L54.783,75.762C107.893,22.652 113.14,27.259 124.018,36.985Z" style="fill:white;fill-rule:nonzero;"/>
            <path d="M70.012,92.271C69.628,92.271 69.372,92.143 69.116,91.887L53.759,76.658C53.247,76.146 53.247,75.378 53.759,74.867C107.765,20.86 113.396,25.979 124.786,36.217C125.042,36.473 125.17,36.729 125.17,37.113C125.17,37.497 125.042,37.753 124.786,38.009L70.78,91.887C70.652,92.143 70.268,92.271 70.012,92.271ZM56.575,75.762L70.012,89.2L122.099,37.113C112.629,28.667 106.23,26.107 56.575,75.762Z" style="fill:rgb(255,108,55);fill-rule:nonzero;"/>
            <path d="M85.497,106.477L70.78,91.759L124.786,37.753C139.248,52.343 117.62,76.018 85.497,106.477Z" style="fill:white;fill-rule:nonzero;"/>
            <path d="M85.497,107.757C85.113,107.757 84.858,107.629 84.602,107.373L69.884,92.655C69.628,92.399 69.628,92.143 69.628,91.759C69.628,91.376 69.756,91.12 70.012,90.864L124.018,36.857C124.53,36.345 125.298,36.345 125.81,36.857C129.138,39.929 130.929,44.28 130.801,48.759C130.545,62.965 114.42,81.009 86.521,107.373C86.137,107.629 85.753,107.757 85.497,107.757ZM72.572,91.759C80.762,100.078 84.218,103.405 85.497,104.685C106.998,84.209 127.858,63.221 127.986,48.759C128.114,45.432 126.834,42.104 124.658,39.545L72.572,91.759Z" style="fill:rgb(255,108,55);fill-rule:nonzero;"/>
            <path d="M55.039,76.146L65.917,87.024C66.173,87.28 66.173,87.536 65.917,87.792C65.789,87.92 65.789,87.92 65.661,87.92L43.137,92.783C41.985,92.911 40.961,92.143 40.705,90.992C40.577,90.352 40.833,89.712 41.217,89.328L54.271,76.274C54.527,76.018 54.911,75.89 55.039,76.146Z" style="fill:white;fill-rule:nonzero;"/>
            <path d="M42.753,94.063C40.833,94.063 39.426,92.527 39.426,90.608C39.426,89.712 39.81,88.816 40.45,88.176L53.503,75.122C54.271,74.483 55.295,74.483 56.063,75.122L66.941,86C67.709,86.64 67.709,87.792 66.941,88.56C66.685,88.816 66.429,88.944 66.045,89.072L43.521,93.935C43.265,93.935 43.009,94.063 42.753,94.063ZM54.655,77.554L42.113,90.096C41.857,90.352 41.729,90.736 41.985,91.12C42.113,91.504 42.497,91.631 42.881,91.504L63.997,86.896L54.655,77.554Z" style="fill:rgb(255,108,55);fill-rule:nonzero;"/>
            <path d="M152.557,7.039C144.367,-0.896 131.185,-0.64 123.251,7.679C115.316,15.997 115.572,29.051 123.89,36.985C130.673,43.512 140.911,44.664 148.974,39.801L134.385,25.211L152.557,7.039Z" style="fill:white;fill-rule:nonzero;"/>
            <path d="M138.224,44.024C126.066,44.024 116.212,34.17 116.212,22.012C116.212,9.854 126.066,-0 138.224,-0C143.855,-0 149.358,2.176 153.453,6.143C153.709,6.399 153.837,6.655 153.837,7.039C153.837,7.423 153.709,7.679 153.453,7.935L136.176,25.211L149.742,38.777C150.254,39.289 150.254,40.057 149.742,40.569C149.614,40.697 149.614,40.697 149.486,40.825C146.158,42.872 142.191,44.024 138.224,44.024ZM138.224,2.688C127.474,2.688 118.771,11.39 118.899,22.14C118.899,32.89 127.602,41.593 138.352,41.465C141.295,41.465 144.239,40.825 146.926,39.417L133.489,26.107C133.233,25.851 133.105,25.595 133.105,25.211C133.105,24.828 133.233,24.572 133.489,24.316L150.638,7.167C147.182,4.223 142.831,2.688 138.224,2.688Z" style="fill:rgb(255,108,55);fill-rule:nonzero;"/>
            <path d="M152.941,7.423L152.685,7.167L134.385,25.211L148.846,39.673C150.254,38.777 151.661,37.753 152.813,36.601C161.004,28.539 161.004,15.485 152.941,7.423Z" style="fill:white;fill-rule:nonzero;"/>
            <path d="M148.974,41.081C148.59,41.081 148.334,40.953 148.078,40.697L133.489,26.107C133.233,25.851 133.105,25.595 133.105,25.211C133.105,24.828 133.233,24.572 133.489,24.316L151.661,6.143C152.173,5.631 152.941,5.631 153.453,6.143L153.837,6.399C162.412,14.973 162.412,28.795 153.965,37.497C152.685,38.777 151.278,39.929 149.742,40.825C149.358,40.953 149.102,41.081 148.974,41.081ZM136.176,25.211L149.102,38.137C150.126,37.497 151.15,36.601 151.917,35.834C159.212,28.539 159.596,16.637 152.557,8.958L136.176,25.211Z" style="fill:rgb(255,108,55);fill-rule:nonzero;"/>
            <path d="M126.194,39.289C123.123,36.217 118.132,36.217 115.06,39.289L66.813,87.536L74.875,95.599L125.938,50.807C129.266,47.991 129.521,43 126.706,39.673C126.45,39.545 126.322,39.417 126.194,39.289Z" style="fill:white;fill-rule:nonzero;"/>
            <path d="M74.747,96.879C74.363,96.879 74.107,96.751 73.851,96.495L65.789,88.432C65.277,87.92 65.277,87.152 65.789,86.64L114.036,38.393C117.62,34.81 123.379,34.81 126.962,38.393C130.545,41.976 130.545,47.735 126.962,51.319C126.834,51.447 126.706,51.575 126.578,51.703L75.515,96.495C75.387,96.751 75.131,96.879 74.747,96.879ZM68.604,87.536L74.875,93.807L125.042,49.783C127.858,47.479 128.114,43.256 125.81,40.441C123.507,37.625 119.283,37.369 116.468,39.673C116.34,39.801 116.212,39.929 115.956,40.057L68.604,87.536Z" style="fill:rgb(255,108,55);fill-rule:nonzero;"/>
            <path d="M29.827,142.438C29.316,142.694 29.06,143.206 29.188,143.718L31.363,152.932C31.875,154.212 31.107,155.748 29.699,156.132C28.676,156.516 27.524,156.132 26.884,155.364L12.806,141.415L58.75,95.471L74.619,95.727L85.369,106.477C82.81,108.652 67.325,123.626 29.827,142.438Z" style="fill:white;fill-rule:nonzero;"/>
            <path d="M28.804,157.412C27.78,157.412 26.756,157.028 26.116,156.26L12.167,142.31C11.911,142.054 11.783,141.798 11.783,141.415C11.783,141.031 11.911,140.775 12.167,140.519L58.11,94.575C58.366,94.319 58.75,94.191 59.006,94.191L74.875,94.447C75.259,94.447 75.515,94.575 75.771,94.831L86.521,105.581C86.777,105.837 86.905,106.221 86.905,106.605C86.905,106.989 86.777,107.245 86.393,107.501L85.497,108.268C71.932,120.17 53.503,132.072 30.595,143.462L32.771,152.549C33.155,154.212 32.387,156.004 30.851,156.9C30.083,157.284 29.443,157.412 28.804,157.412ZM14.726,141.415L27.908,154.468C28.292,155.108 29.06,155.364 29.699,154.98C30.339,154.596 30.595,153.828 30.211,153.188L28.036,143.974C27.78,142.822 28.292,141.798 29.316,141.287C51.967,129.897 70.268,118.123 83.706,106.477L74.235,97.007L59.518,96.751L14.726,141.415Z" style="fill:rgb(255,108,55);fill-rule:nonzero;"/>
            <path d="M1.928,152.421L12.934,141.415L29.316,157.796L3.208,156.004C2.056,155.876 1.289,154.852 1.417,153.7C1.417,153.188 1.545,152.676 1.928,152.421Z" style="fill:white;fill-rule:nonzero;"/>
            <path d="M29.316,158.947L3.08,157.156C1.161,157.028 -0.119,155.364 0.009,153.444C0.137,152.676 0.393,151.909 1.033,151.397L12.039,140.391C12.551,139.879 13.318,139.879 13.83,140.391L30.211,156.772C30.595,157.156 30.723,157.668 30.467,158.179C30.211,158.691 29.827,158.947 29.316,158.947ZM12.934,143.206L2.824,153.316C2.44,153.572 2.44,154.212 2.824,154.468C2.952,154.596 3.08,154.724 3.336,154.724L25.988,156.26L12.934,143.206Z" style="fill:rgb(255,108,55);fill-rule:nonzero;"/>
            <path d="M54.271,101.358C53.503,101.358 52.991,100.718 52.991,100.078C52.991,99.694 53.119,99.438 53.375,99.182L65.789,86.768C66.301,86.256 67.069,86.256 67.581,86.768L75.643,94.831C76.027,95.215 76.155,95.599 76.027,96.111C75.899,96.495 75.515,96.879 75.003,97.007L54.527,101.358L54.271,101.358ZM66.685,89.456L58.238,97.902L72.06,94.959L66.685,89.456Z" style="fill:rgb(255,108,55);fill-rule:nonzero;"/>
            <path d="M74.619,95.727L60.542,98.798C59.518,99.054 58.494,98.414 58.238,97.39C58.11,96.751 58.238,96.111 58.75,95.599L66.557,87.792L74.619,95.727Z" style="fill:white;fill-rule:nonzero;"/>
            <path d="M60.286,100.078C58.494,100.078 57.087,98.67 57.087,96.879C57.087,95.983 57.47,95.215 57.982,94.575L65.789,86.768C66.301,86.256 67.069,86.256 67.581,86.768L75.643,94.831C76.027,95.215 76.155,95.599 76.027,96.111C75.899,96.495 75.515,96.879 75.003,97.007L60.926,100.078L60.286,100.078ZM66.685,89.456L59.774,96.367C59.518,96.623 59.518,96.879 59.646,97.134C59.774,97.39 60.03,97.518 60.414,97.518L72.188,94.959L66.685,89.456Z" style="fill:rgb(255,108,55);fill-rule:nonzero;"/>
            <path d="M153.069,19.708C152.813,18.941 151.917,18.557 151.15,18.813C150.382,19.069 149.998,19.964 150.254,20.732C150.254,20.86 150.382,20.988 150.382,21.116C151.15,22.652 150.894,24.572 149.87,25.979C149.358,26.619 149.486,27.515 149.998,28.027C150.638,28.539 151.533,28.411 152.045,27.771C153.965,25.339 154.349,22.268 153.069,19.708Z" style="fill:rgb(255,108,55);fill-rule:nonzero;"/>
        </g>
    </g>
</svg>
