<?xml version="1.0" encoding="UTF-8" standalone="no"?>
<!DOCTYPE svg PUBLIC "-//W3C//DTD SVG 1.1//EN" "http://www.w3.org/Graphics/SVG/1.1/DTD/svg11.dtd">
<svg width="100%" height="100%" viewBox="0 0 292 292" version="1.1" xmlns="http://www.w3.org/2000/svg" xmlns:xlink="http://www.w3.org/1999/xlink" xml:space="preserve" xmlns:serif="http://www.serif.com/" style="fill-rule:evenodd;clip-rule:evenodd;stroke-linejoin:round;stroke-miterlimit:2;">
    <g transform="matrix(1,0,0,1,18,0)">
        <path d="M223.774,57.34C223.573,55.879 222.294,55.072 221.237,54.983C220.182,54.895 197.854,53.24 197.854,53.24C197.854,53.24 182.347,37.845 180.645,36.141C178.942,34.438 175.616,34.956 174.326,35.336C174.134,35.392 170.937,36.379 165.647,38.015C160.466,23.11 151.325,9.412 135.242,9.412C134.798,9.412 134.341,9.43 133.884,9.456C129.31,3.407 123.644,0.779 118.75,0.779C81.285,0.779 63.386,47.614 57.774,71.414C43.216,75.925 32.874,79.132 31.553,79.547C23.427,82.096 23.17,82.352 22.104,90.009C21.299,95.806 0.037,260.235 0.037,260.235L165.715,291.277L255.486,271.857C255.486,271.857 223.972,58.801 223.774,57.34ZM156.49,40.848C152.329,42.136 147.598,43.6 142.471,45.187C142.476,44.199 142.481,43.226 142.481,42.164C142.481,32.9 141.195,25.441 139.132,19.528C147.419,20.569 152.938,29.997 156.49,40.848ZM128.852,21.365C131.156,27.138 132.654,35.423 132.654,46.603C132.654,47.175 132.649,47.698 132.644,48.227C123.527,51.051 113.62,54.117 103.691,57.193C109.266,35.677 119.716,25.285 128.852,21.365ZM117.721,10.828C119.338,10.828 120.967,11.377 122.526,12.45C110.519,18.1 97.649,32.33 92.214,60.747C84.27,63.207 76.506,65.611 69.328,67.835C75.694,46.16 90.811,10.828 117.721,10.828Z" style="fill:rgb(149,191,70);fill-rule:nonzero;"/>
        <path d="M221.237,54.983C220.182,54.895 197.854,53.24 197.854,53.24C197.854,53.24 182.347,37.845 180.645,36.141C180.008,35.507 179.149,35.182 178.251,35.042L165.724,291.275L255.486,271.857C255.486,271.857 223.972,58.801 223.774,57.34C223.573,55.879 222.294,55.072 221.237,54.983" style="fill:rgb(94,142,62);fill-rule:nonzero;"/>
        <path d="M135.242,104.585L124.173,137.511C124.173,137.511 114.475,132.335 102.587,132.335C85.159,132.335 84.282,143.272 84.282,146.028C84.282,161.066 123.483,166.828 123.483,202.052C123.483,229.765 105.905,247.61 82.205,247.61C53.765,247.61 39.221,229.909 39.221,229.909L46.836,204.75C46.836,204.75 61.785,217.585 74.401,217.585C82.644,217.585 85.997,211.095 85.997,206.353C85.997,186.737 53.837,185.862 53.837,153.629C53.837,126.5 73.309,100.247 112.615,100.247C127.76,100.247 135.242,104.585 135.242,104.585" style="fill:white;fill-rule:nonzero;"/>
    </g>
</svg>
